<svg width="18" height="18" viewBox="0 0 18 18" fill="none" xmlns="http://www.w3.org/2000/svg">
<path d="M6.06802 0.228032C4.70453 0.0756414 3.29549 0.0756414 1.932 0.228032C1.05481 0.32607 0.345511 1.01682 0.242068 1.90126C0.0789785 3.29568 0.0789785 4.70435 0.242068 6.09877C0.345511 6.9832 1.05481 7.67396 1.932 7.772C3.29549 7.92439 4.70453 7.92439 6.06802 7.772C6.9452 7.67396 7.65451 6.9832 7.75795 6.09877C7.92104 4.70435 7.92104 3.29568 7.75795 1.90126C7.65451 1.01682 6.9452 0.32607 6.06802 0.228032Z" fill="black"/>
<path d="M6.06802 10.228C4.70453 10.0756 3.29549 10.0756 1.932 10.228C1.05481 10.3261 0.345511 11.0168 0.242068 11.9013C0.0789785 13.2957 0.0789785 14.7043 0.242068 16.0988C0.345511 16.9832 1.05481 17.674 1.932 17.772C3.29549 17.9244 4.70453 17.9244 6.06802 17.772C6.9452 17.674 7.65451 16.9832 7.75795 16.0988C7.92104 14.7043 7.92104 13.2957 7.75795 11.9013C7.65451 11.0168 6.9452 10.3261 6.06802 10.228Z" fill="black"/>
<path d="M16.068 0.228032C14.7045 0.0756414 13.2955 0.0756414 11.932 0.228032C11.0548 0.32607 10.3455 1.01682 10.2421 1.90126C10.079 3.29568 10.079 4.70435 10.2421 6.09877C10.3455 6.9832 11.0548 7.67396 11.932 7.772C13.2955 7.92439 14.7045 7.92439 16.068 7.772C16.9452 7.67396 17.6545 6.9832 17.758 6.09877C17.9211 4.70435 17.9211 3.29568 17.758 1.90126C17.6545 1.01682 16.9452 0.32607 16.068 0.228032Z" fill="black"/>
<path d="M16.068 10.228C14.7045 10.0756 13.2955 10.0756 11.932 10.228C11.0548 10.3261 10.3455 11.0168 10.2421 11.9013C10.079 13.2957 10.079 14.7043 10.2421 16.0988C10.3455 16.9832 11.0548 17.674 11.932 17.772C13.2955 17.9244 14.7045 17.9244 16.068 17.772C16.9452 17.674 17.6545 16.9832 17.758 16.0988C17.9211 14.7043 17.9211 13.2957 17.758 11.9013C17.6545 11.0168 16.9452 10.3261 16.068 10.228Z" fill="black"/>
</svg>
