<svg width="17" height="21" viewBox="0 0 17 21" fill="none" xmlns="http://www.w3.org/2000/svg">
<path d="M6.5 0.25C6.08579 0.25 5.75 0.585786 5.75 1V1.75H1.5C1.08579 1.75 0.75 2.08579 0.75 2.5C0.75 2.91421 1.08579 3.25 1.5 3.25H15.5C15.9142 3.25 16.25 2.91421 16.25 2.5C16.25 2.08579 15.9142 1.75 15.5 1.75H11.25V1C11.25 0.585786 10.9142 0.25 10.5 0.25H6.5Z" fill="#F75454" fill-opacity="0.8"/>
<path d="M6.5 8.64999C6.91421 8.64999 7.25 8.98578 7.25 9.39999L7.25 16.4C7.25 16.8142 6.91421 17.15 6.5 17.15C6.08579 17.15 5.75 16.8142 5.75 16.4L5.75 9.39999C5.75 8.98578 6.08579 8.64999 6.5 8.64999Z" fill="#F75454" fill-opacity="0.8"/>
<path d="M11.25 9.39999C11.25 8.98578 10.9142 8.64999 10.5 8.64999C10.0858 8.64999 9.75 8.98578 9.75 9.39999V16.4C9.75 16.8142 10.0858 17.15 10.5 17.15C10.9142 17.15 11.25 16.8142 11.25 16.4V9.39999Z" fill="#F75454" fill-opacity="0.8"/>
<path fill-rule="evenodd" clip-rule="evenodd" d="M2.49142 5.91718C2.53363 5.53735 2.85468 5.25 3.23684 5.25H13.7632C14.1453 5.25 14.4664 5.53735 14.5086 5.91718L14.7087 7.71852C15.0715 10.9838 15.0715 14.2793 14.7087 17.5446L14.689 17.722C14.545 19.0181 13.5404 20.0517 12.2489 20.2325C9.76176 20.5807 7.23823 20.5807 4.75108 20.2325C3.45954 20.0517 2.455 19.0181 2.31098 17.722L2.29128 17.5446C1.92846 14.2793 1.92846 10.9838 2.29128 7.71852L2.49142 5.91718ZM3.90812 6.75L3.7821 7.88417C3.43152 11.0394 3.43152 14.2238 3.7821 17.379L3.8018 17.5563C3.87011 18.171 4.34652 18.6612 4.95905 18.747C7.30822 19.0758 9.69177 19.0758 12.0409 18.747C12.6535 18.6612 13.1299 18.171 13.1982 17.5563L13.2179 17.379C13.5685 14.2238 13.5685 11.0394 13.2179 7.88417L13.0919 6.75H3.90812Z" fill="#F75454" fill-opacity="0.8"/>
</svg>
