<svg width="20" height="20" viewBox="0 0 20 20" fill="none" xmlns="http://www.w3.org/2000/svg">
<path fill-rule="evenodd" clip-rule="evenodd" d="M18.9549 3.41575C19.1471 3.70687 19.115 4.10248 18.8588 4.35876L9.66637 13.5511C9.57215 13.6454 9.45451 13.7128 9.32558 13.7465L5.49716 14.7465C5.37229 14.7791 5.24358 14.7784 5.12265 14.7476C4.99408 14.7149 4.87431 14.6482 4.77729 14.5511C4.58902 14.3629 4.51468 14.0889 4.58197 13.8313L5.58197 10.0028C5.61144 9.89003 5.66673 9.77861 5.74322 9.69121L14.9697 0.46967C15.0504 0.388906 15.1477 0.32846 15.2536 0.291631C15.3321 0.264324 15.4153 0.25 15.5 0.25C15.6989 0.25 15.8897 0.329017 16.0303 0.46967L18.8588 3.2981C18.8954 3.33471 18.9274 3.37416 18.9549 3.41575ZM17.2678 3.82843L15.5 2.06066L6.98184 10.5788L6.35685 12.9716L8.74962 12.3466L17.2678 3.82843Z" fill="#424242"/>
<path d="M17.1414 15.1603C17.4148 12.8227 17.5018 10.4688 17.4023 8.12079C17.3976 8.00837 17.4399 7.89898 17.5194 7.81942L18.5027 6.83609C18.6236 6.71519 18.8302 6.79194 18.8415 6.96254C19.0265 9.75219 18.9564 12.5545 18.6312 15.3346C18.3946 17.3571 16.7703 18.9421 14.7583 19.167C11.2917 19.5544 7.70835 19.5544 4.24177 19.167C2.22971 18.9421 0.605379 17.3571 0.368826 15.3346C-0.0457121 11.7903 -0.0457121 8.20973 0.368826 4.66543C0.605379 2.6429 2.22971 1.05789 4.24177 0.833012C6.87152 0.539099 9.56846 0.468149 12.2306 0.620161C12.4022 0.629958 12.4804 0.837575 12.3589 0.959093L11.3664 1.95165C11.2877 2.03034 11.1798 2.07261 11.0685 2.06885C8.84211 1.99376 6.60055 2.07872 4.40838 2.32373C3.07827 2.47239 2.01278 3.522 1.85867 4.83968C1.45767 8.26821 1.45767 11.7318 1.85867 15.1603C2.01278 16.478 3.07827 17.5276 4.40838 17.6763C7.76423 18.0513 11.2358 18.0513 14.5916 17.6763C15.9218 17.5276 16.9872 16.478 17.1414 15.1603Z" fill="#424242"/>
</svg>
