<svg width="3" height="16" viewBox="0 0 3 16" fill="none" xmlns="http://www.w3.org/2000/svg">
<path d="M1.50003 1.25003C1.91424 1.25003 2.25003 1.58582 2.25003 2.00003C2.25003 2.41424 1.91424 2.75003 1.50003 2.75003C1.08582 2.75003 0.750031 2.41424 0.750031 2.00003C0.750031 1.58582 1.08582 1.25003 1.50003 1.25003ZM1.50003 7.25003C1.91424 7.25003 2.25003 7.58582 2.25003 8.00003C2.25003 8.41424 1.91424 8.75003 1.50003 8.75003C1.08582 8.75003 0.750031 8.41424 0.750031 8.00003C0.750031 7.58582 1.08582 7.25003 1.50003 7.25003ZM1.50003 13.25C1.91424 13.25 2.25003 13.5858 2.25003 14C2.25003 14.4142 1.91424 14.75 1.50003 14.75C1.08582 14.75 0.750031 14.4142 0.750031 14C0.750031 13.5858 1.08582 13.25 1.50003 13.25Z" fill="#424242" stroke="#424242" stroke-width="1.5"/>
</svg>
