<svg width="22" height="22" viewBox="0 0 22 22" fill="none" xmlns="http://www.w3.org/2000/svg">
<path d="M7.75 11C7.75 9.20507 9.20507 7.75 11 7.75C12.7949 7.75 14.25 9.20507 14.25 11C14.25 12.7949 12.7949 14.25 11 14.25C9.20507 14.25 7.75 12.7949 7.75 11Z" fill="black"/>
<path fill-rule="evenodd" clip-rule="evenodd" d="M10.4607 0.838515C10.7555 0.533473 11.2445 0.533473 11.5393 0.838515L14.1116 3.5H17.75C18.1642 3.5 18.5 3.83579 18.5 4.25V7.8884L21.1615 10.4607C21.4665 10.7555 21.4665 11.2445 21.1615 11.5393L18.5 14.1116V17.75C18.5 18.1642 18.1642 18.5 17.75 18.5H14.1116L11.5393 21.1615C11.2445 21.4665 10.7555 21.4665 10.4607 21.1615L7.88839 18.5H4.25001C3.8358 18.5 3.50001 18.1642 3.50001 17.75V14.1116L0.838522 11.5393C0.533481 11.2445 0.533481 10.7555 0.838521 10.4607L3.50001 7.88839V4.25C3.50001 3.83579 3.83579 3.5 4.25001 3.5H7.8884L10.4607 0.838515ZM11 6.25C8.37665 6.25 6.25 8.37665 6.25 11C6.25 13.6234 8.37665 15.75 11 15.75C13.6234 15.75 15.75 13.6234 15.75 11C15.75 8.37665 13.6234 6.25 11 6.25Z" fill="black"/>
</svg>
